<?xml version="1.0" encoding="UTF-8" standalone="no"?>
<svg
   xmlns:dc="http://purl.org/dc/elements/1.1/"
   xmlns:cc="http://creativecommons.org/ns#"
   xmlns:rdf="http://www.w3.org/1999/02/22-rdf-syntax-ns#"
   xmlns:svg="http://www.w3.org/2000/svg"
   xmlns="http://www.w3.org/2000/svg"
   xmlns:sodipodi="http://sodipodi.sourceforge.net/DTD/sodipodi-0.dtd"
   xmlns:inkscape="http://www.inkscape.org/namespaces/inkscape"
   viewBox="0 0 124.04 129.41"
   version="1.1"
   id="svg40"
   sodipodi:docname="logo.svg"
   inkscape:version="0.92.1 r15371">
  <metadata
     id="metadata44">
    <rdf:RDF>
      <cc:Work
         rdf:about="">
        <dc:format>image/svg+xml</dc:format>
        <dc:type
           rdf:resource="http://purl.org/dc/dcmitype/StillImage" />
        <dc:title>Fichier 12</dc:title>
      </cc:Work>
    </rdf:RDF>
  </metadata>
  <sodipodi:namedview
     pagecolor="#ffffff"
     bordercolor="#666666"
     borderopacity="1"
     objecttolerance="10"
     gridtolerance="10"
     guidetolerance="10"
     inkscape:pageopacity="0"
     inkscape:pageshadow="2"
     inkscape:window-width="1360"
     inkscape:window-height="704"
     id="namedview42"
     showgrid="false"
     inkscape:zoom="3.6473224"
     inkscape:cx="55.257095"
     inkscape:cy="67.873142"
     inkscape:window-x="0"
     inkscape:window-y="27"
     inkscape:window-maximized="1"
     inkscape:current-layer="svg40" />
  <defs
     id="defs4">
    <style
       id="style2">.cls-1{fill:#fcdc0f;}.cls-2{fill:#3c3c3b;}</style>
  </defs>
  <title
     id="title6">Fichier 12</title>
  <rect
     style="fill:#ffa715;fill-opacity:1"
     id="rect882"
     width="124"
     height="129.41"
     x="0"
     y="0" />
  <path
     class="cls-1"
     d="m 23.88,102.61 h -10.5 a 2,2 0 0 1 0,-4 h 10.5 a 2,2 0 0 1 0,4 z"
     id="path8"
     inkscape:connector-curvature="0"
     style="fill:#ffffff;fill-opacity:1" />
  <path
     class="cls-1"
     d="m 106.58,67.31 h -32 a 2,2 0 0 1 0,-4 h 32 a 2,2 0 0 1 0,4 z"
     id="path10"
     inkscape:connector-curvature="0"
     style="fill:#ffffff;fill-opacity:1" />
  <path
     class="cls-2"
     d="M 10.43,29 A 9.13,9.13 0 0 1 11,25.82 8.56,8.56 0 0 1 15.45,21 8.44,8.44 0 0 1 19.13,20.23 8,8 0 0 1 23.34,21.3 6.82,6.82 0 0 1 26,24.07 l -2.63,1.81 A 4.5,4.5 0 0 0 22.53,24.62 4.27,4.27 0 0 0 21.46,23.81 4.85,4.85 0 0 0 20.27,23.37 5.73,5.73 0 0 0 19,23.25 a 4.62,4.62 0 0 0 -2.25,0.52 5,5 0 0 0 -1.59,1.35 6,6 0 0 0 -1,1.89 7.16,7.16 0 0 0 -0.32,2.1 6.84,6.84 0 0 0 0.37,2.25 6,6 0 0 0 1.06,1.9 5.27,5.27 0 0 0 1.73,1.32 4.49,4.49 0 0 0 2.1,0.5 5.51,5.51 0 0 0 1.24,-0.15 4.64,4.64 0 0 0 2.31,-1.3 3.82,3.82 0 0 0 0.79,-1.23 L 26.23,34 A 5.31,5.31 0 0 1 25,35.76 7.74,7.74 0 0 1 23.26,37 9,9 0 0 1 21.16,37.8 9.19,9.19 0 0 1 19,38.1 7.51,7.51 0 0 1 15.55,37.31 9,9 0 0 1 12.86,35.23 9.61,9.61 0 0 1 11.1,32.32 9.07,9.07 0 0 1 10.43,29 Z"
     id="path14"
     inkscape:connector-curvature="0"
     style="fill:#ffffff;fill-opacity:1" />
  <path
     class="cls-2"
     d="m 39.89,38 a 8,8 0 0 1 -3.51,-0.76 8.65,8.65 0 0 1 -2.71,-2 9.33,9.33 0 0 1 -2.37,-6.17 8.86,8.86 0 0 1 0.7,-3.38 9.31,9.31 0 0 1 1.81,-2.86 8.67,8.67 0 0 1 2.74,-2 8.14,8.14 0 0 1 3.45,-0.71 7.74,7.74 0 0 1 3.49,0.78 8.7,8.7 0 0 1 2.69,2 9.46,9.46 0 0 1 1.74,2.88 9.08,9.08 0 0 1 0.62,3.28 8.92,8.92 0 0 1 -0.65,3.37 9.15,9.15 0 0 1 -1.79,2.83 8.59,8.59 0 0 1 -2.73,2 8.14,8.14 0 0 1 -3.48,0.74 z m -5.12,-8.94 a 7.06,7.06 0 0 0 0.35,2.21 5.89,5.89 0 0 0 1,1.89 5,5 0 0 0 1.61,1.32 5,5 0 0 0 4.37,0 5,5 0 0 0 1.61,-1.35 6,6 0 0 0 1,-1.9 7,7 0 0 0 0.34,-2.15 6.87,6.87 0 0 0 -0.36,-2.21 6.1,6.1 0 0 0 -1,-1.89 4.87,4.87 0 0 0 -1.61,-1.3 5,5 0 0 0 -4.36,0 4.87,4.87 0 0 0 -1.63,1.32 6,6 0 0 0 -1,1.89 7,7 0 0 0 -0.32,2.18 z"
     id="path16"
     inkscape:connector-curvature="0"
     style="fill:#ffffff;fill-opacity:1" />
  <path
     class="cls-2"
     d="M 67,37.88 V 26.21 L 62.5,34.9 H 60.64 L 56.09,26.21 V 37.88 H 52.67 V 20.25 h 3.68 l 5.21,10 5.27,-10 h 3.65 v 17.63 z"
     id="path18"
     inkscape:connector-curvature="0"
     style="fill:#ffffff;fill-opacity:1" />
  <path
     class="cls-2"
     d="M 90.15,37.88 V 26.21 L 85.6,34.9 H 83.74 L 79.2,26.21 V 37.88 H 75.77 V 20.25 h 3.68 l 5.21,10 5.27,-10 h 3.65 v 17.63 z"
     id="path20"
     inkscape:connector-curvature="0"
     style="fill:#ffffff;fill-opacity:1" />
  <path
     class="cls-2"
     d="m 111.05,34.88 v 3 H 98.81 V 20.25 h 12 v 3 h -8.59 v 4.25 h 7.43 v 2.78 h -7.43 v 4.6 z"
     id="path22"
     inkscape:connector-curvature="0"
     style="fill:#ffffff;fill-opacity:1" />
  <path
     class="cls-2"
     d="m 18.86,70.71 a 3.92,3.92 0 0 0 2,-0.5 A 4,4 0 0 0 22.2,68.92 5.33,5.33 0 0 0 23,67.1 10.55,10.55 0 0 0 23.19,65 v -9 h 3.4 v 9 A 12.85,12.85 0 0 1 26.15,68.4 7.8,7.8 0 0 1 24.78,71.18 6.54,6.54 0 0 1 22.39,73 8.12,8.12 0 0 1 18.89,73.69 8,8 0 0 1 15.3,73 6.68,6.68 0 0 1 12.9,71.06 7.72,7.72 0 0 1 11.57,68.27 13.14,13.14 0 0 1 11.16,64.97 V 56 h 3.43 v 9 a 10.68,10.68 0 0 0 0.21,2.15 5.33,5.33 0 0 0 0.72,1.83 3.92,3.92 0 0 0 1.33,1.28 3.88,3.88 0 0 0 2.01,0.45 z"
     id="path24"
     inkscape:connector-curvature="0"
     style="fill:#ffffff;fill-opacity:1" />
  <path
     class="cls-2"
     d="m 35.88,62.38 v 11.3 H 32.46 V 56 h 2.66 L 44.3,67.62 V 56.07 h 3.43 V 73.68 H 45 Z"
     id="path26"
     inkscape:connector-curvature="0"
     style="fill:#ffffff;fill-opacity:1" />
  <path
     class="cls-2"
     d="m 65.05,70.67 v 3 H 52.81 V 56 h 12 v 3 h -8.59 v 4.3 h 7.43 v 2.78 h -7.43 v 4.6 z"
     id="path28"
     inkscape:connector-curvature="0"
     style="fill:#ffffff;fill-opacity:1" />
  <path
     class="cls-2"
     d="M 37.67,109.44 V 91.81 h 3.43 v 17.63 z"
     id="path30"
     inkscape:connector-curvature="0"
     style="fill:#ffffff;fill-opacity:1" />
  <path
     class="cls-2"
     d="M 53.88,109.44 V 91.81 h 6.41 a 9.59,9.59 0 0 1 3.79,0.7 7.61,7.61 0 0 1 4.36,4.68 10.53,10.53 0 0 1 0.56,3.41 10.33,10.33 0 0 1 -0.61,3.64 7.77,7.77 0 0 1 -1.77,2.76 7.89,7.89 0 0 1 -2.74,1.79 9.7,9.7 0 0 1 -3.59,0.63 z m 11.65,-8.84 a 7.51,7.51 0 0 0 -0.35,-2.33 5.22,5.22 0 0 0 -1,-1.84 4.53,4.53 0 0 0 -1.65,-1.19 5.57,5.57 0 0 0 -2.22,-0.42 h -3 v 11.62 h 3 a 5.37,5.37 0 0 0 2.25,-0.45 4.58,4.58 0 0 0 1.64,-1.23 5.48,5.48 0 0 0 1,-1.85 7.43,7.43 0 0 0 0.33,-2.31 z"
     id="path32"
     inkscape:connector-curvature="0"
     style="fill:#ffffff;fill-opacity:1" />
  <path
     class="cls-2"
     d="m 89.18,106.44 v 3 H 76.93 V 91.81 H 89 v 3 h -8.64 v 4.25 h 7.43 v 2.78 h -7.43 v 4.6 z m -5.12,-16.12 -2.14,-0.65 1.34,-3 h 3.1 z"
     id="path34"
     inkscape:connector-curvature="0"
     style="fill:#ffffff;fill-opacity:1" />
  <path
     class="cls-2"
     d="m 110.58,106.44 v 3 H 98.34 V 91.81 h 12 v 3 h -8.59 v 4.25 h 7.43 v 2.78 h -7.43 v 4.6 z"
     id="path36"
     inkscape:connector-curvature="0"
     style="fill:#ffffff;fill-opacity:1" />
</svg>
